<svg width="16" height="16" viewBox="0 0 16 16" fill="none" xmlns="http://www.w3.org/2000/svg">
<path d="M8.00674 1.33328C9.54965 1.33328 10.9053 2.29926 11.4021 3.71101C11.494 3.97195 11.3534 4.25672 11.0882 4.34707C10.8229 4.43742 10.5335 4.29912 10.4416 4.03819C10.0854 3.02611 9.11313 2.33328 8.00472 2.33328C6.62673 2.3279 5.49704 3.38755 5.42213 4.72376L5.4182 4.85391L5.41816 5.75059L10.589 5.75082C12.2402 5.75082 13.5878 7.03039 13.6635 8.63684L13.6668 8.77941V11.638C13.6668 13.3106 12.2888 14.6666 10.589 14.6666H5.41128C3.71152 14.6666 2.3335 13.3106 2.3335 11.638V8.77941C2.3335 7.45477 3.19775 6.32876 4.40163 5.91755L4.40175 4.85172C4.41044 2.90047 6.02518 1.32558 8.00674 1.33328ZM10.589 6.75079H5.41128C4.27293 6.75079 3.34994 7.65899 3.34994 8.77941V11.638C3.34994 12.7584 4.27293 13.6666 5.41128 13.6666H10.589C11.7274 13.6666 12.6504 12.7584 12.6504 11.638V8.77941C12.6504 7.65899 11.7274 6.75079 10.589 6.75079ZM8.0003 8.9682C8.25759 8.9682 8.47023 9.1563 8.50388 9.40034L8.50852 9.46819V10.9495C8.50852 11.2256 8.28098 11.4495 8.0003 11.4495C7.74301 11.4495 7.53037 11.2614 7.49672 11.0173L7.49208 10.9495V9.46819C7.49208 9.19205 7.71962 8.9682 8.0003 8.9682Z" fill="#ABBBC2"/>
</svg>
