<svg width="16.666504" height="15.833374" viewBox="0 0 16.6665 15.8334" fill="none" xmlns="http://www.w3.org/2000/svg" xmlns:xlink="http://www.w3.org/1999/xlink">
	<desc>
			Created with Pixso.
	</desc>
	<defs/>
	<path id="Vector" d="M13.5312 9.64368C15.2607 9.64368 16.6665 11.0315 16.6665 12.7385C16.6665 14.4446 15.2607 15.8334 13.5312 15.8334C11.8018 15.8334 10.396 14.4446 10.396 12.7385C10.396 11.0315 11.8018 9.64368 13.5312 9.64368ZM13.5312 11.0953C12.6123 11.0953 11.8667 11.8318 11.8667 12.7385C11.8667 13.6443 12.6123 14.3817 13.5312 14.3817C14.4497 14.3817 15.1958 13.6443 15.1958 12.7385C15.1958 11.8318 14.4497 11.0953 13.5312 11.0953ZM6.76416 12.0125C7.17041 12.0125 7.49951 12.3376 7.49951 12.7383C7.49951 13.1389 7.17041 13.464 6.76416 13.464L0.73584 13.464C0.330078 13.464 0.000488281 13.1389 0.000488281 12.7383C0.000488281 12.3376 0.330078 12.0125 0.73584 12.0125L6.76416 12.0125ZM3.13525 0C4.86475 0 6.27051 1.38867 6.27051 3.09485C6.27051 4.8009 4.86475 6.18958 3.13525 6.18958C1.40674 6.18958 0 4.8009 0 3.09485C0 1.38867 1.40674 0 3.13525 0ZM3.13525 1.45154C2.21777 1.45154 1.4707 2.18896 1.4707 3.09485C1.4707 4.00061 2.21777 4.73804 3.13525 4.73804C4.05371 4.73804 4.7998 4.00061 4.7998 3.09485C4.7998 2.18896 4.05371 1.45154 3.13525 1.45154ZM15.9312 2.36914C16.3374 2.36914 16.6665 2.69434 16.6665 3.09497C16.6665 3.49561 16.3374 3.8208 15.9312 3.8208L9.90186 3.8208C9.49609 3.8208 9.16699 3.49561 9.16699 3.09497C9.16699 2.69434 9.49609 2.36914 9.90186 2.36914L15.9312 2.36914Z" fill="#FFFFFF" fill-opacity="1.000000" fill-rule="nonzero"/>
</svg>
