<svg width="19.000000" height="19.998047" viewBox="0 0 19 19.998" fill="none" xmlns="http://www.w3.org/2000/svg" xmlns:xlink="http://www.w3.org/1999/xlink">
	<desc>
			Created with Pixso.
	</desc>
	<defs/>
	<path id="Vector" d="M7.22998 0.787964C8.5 -0.221069 10.28 -0.260986 11.5891 0.667969L11.75 0.787964L17.8391 5.65894C18.509 6.17798 18.9199 6.94897 18.99 7.78796L19 7.98901L19 16.098C19 18.188 17.3491 19.8879 15.28 19.998L13.29 19.998C12.3391 19.979 11.5701 19.239 11.5 18.309L11.49 18.168L11.49 15.309C11.49 14.998 11.259 14.739 10.95 14.688L10.8601 14.678L8.18896 14.678C7.87012 14.688 7.61011 14.918 7.57007 15.218L7.56006 15.309L7.56006 18.1589C7.56006 18.218 7.54907 18.288 7.54004 18.338L7.53003 18.359L7.51904 18.428C7.3999 19.2789 6.69995 19.928 5.83008 19.989L5.69995 19.998L3.90991 19.998C1.82007 19.998 0.110107 18.359 0 16.298L0 7.98901C0.0090332 7.13794 0.379883 6.34802 1 5.79797L7.22998 0.787964ZM10.8799 1.87793C10.1201 1.26794 9.04004 1.23901 8.23999 1.76794L8.08911 1.87793L2.00903 6.77893C1.65991 7.03796 1.44995 7.42798 1.3999 7.83801L1.38892 7.99805L1.38892 16.098C1.38892 17.428 2.42896 18.5179 3.75 18.598L5.69995 18.598C5.91992 18.598 6.11011 18.449 6.13892 18.239L6.15991 18.059L6.16992 18.0079L6.16992 15.309C6.16992 14.239 6.98999 13.369 8.04004 13.288L10.8601 13.288C11.929 13.288 12.7991 14.109 12.8799 15.1589L12.8799 18.168C12.8799 18.3779 13.03 18.559 13.23 18.598L15.0891 18.598C16.429 18.598 17.519 17.569 17.5989 16.2579L17.6101 16.098L17.6101 7.99805C17.5989 7.56897 17.4199 7.16797 17.1101 6.86902L16.98 6.75793L10.8799 1.87793Z" fill="#EA7C69" fill-opacity="1.000000" fill-rule="nonzero"/>
</svg>
