<svg width="19.000000" height="20.000000" viewBox="0 0 19 20" fill="none" xmlns="http://www.w3.org/2000/svg" xmlns:xlink="http://www.w3.org/1999/xlink">
	<desc>
			Created with Pixso.
	</desc>
	<defs/>
	<path id="Vector" d="M10.1162 0C10.8252 -0.000244141 11.5039 0.280518 11.998 0.778809C12.4927 1.27686 12.7598 1.94971 12.7383 2.57764L12.7471 2.72534C12.7642 2.87085 12.8125 3.01123 12.8906 3.14062C13.0435 3.39575 13.2935 3.58081 13.5854 3.65503C13.8779 3.72949 14.188 3.68677 14.4819 3.51831L14.646 3.43555C15.876 2.8689 17.3511 3.31909 18.0332 4.47925L18.6465 5.52173C18.6626 5.54932 18.6768 5.57764 18.689 5.60669L18.7461 5.71851C19.2944 6.86523 18.9043 8.22925 17.8623 8.92236L17.605 9.08057C17.4707 9.17261 17.3584 9.29248 17.2739 9.43677C17.1221 9.69287 17.0801 9.99805 17.1582 10.2844C17.2358 10.5708 17.4272 10.8149 17.7173 10.9792L17.8843 11.084C18.3887 11.4297 18.7529 11.9392 18.9121 12.5229C19.0913 13.1816 18.9951 13.8833 18.6401 14.4805L17.9805 15.5571L17.8809 15.709C17.106 16.8008 15.6011 17.1343 14.4526 16.4849L14.3164 16.4163C14.1748 16.354 14.0215 16.3198 13.8818 16.3162C13.5786 16.3147 13.2871 16.4321 13.0728 16.6423C12.8584 16.8523 12.7383 17.1379 12.7393 17.4697L12.731 17.6414C12.6201 18.9702 11.4844 20 10.1162 20L8.88086 20C7.43213 20 6.25781 18.8494 6.25928 17.4753L6.25049 17.3276C6.2334 17.1821 6.18506 17.0417 6.10254 16.9058C5.95312 16.6499 5.70605 16.4631 5.41553 16.387C5.125 16.3108 4.81543 16.3516 4.51562 16.5212L4.3374 16.6084C3.77441 16.8564 3.13965 16.9023 2.54443 16.7366C1.87305 16.5496 1.30518 16.1084 0.974121 15.5225L0.336914 14.4441L0.251953 14.2844C-0.328613 13.0842 0.126465 11.6411 1.28125 10.9875L1.38623 10.9229C1.69482 10.7136 1.87988 10.3689 1.87988 10C1.87988 9.59888 1.66162 9.22827 1.2793 9.01147L1.12451 8.91406C0.00976562 8.15479 -0.330566 6.68042 0.359863 5.50684L1.00928 4.46167C1.73145 3.23364 3.33154 2.81006 4.5625 3.50171L4.6958 3.57129C4.83154 3.63232 4.979 3.66479 5.12109 3.66626C5.74756 3.66626 6.25781 3.17358 6.26709 2.54175L6.27588 2.3479C6.32715 1.74707 6.59326 1.18262 7.02783 0.754639C7.51855 0.271484 8.18555 0 8.88086 0L10.1162 0ZM10.1162 1.44775L8.88086 1.44775C8.57861 1.44775 8.28857 1.56592 8.0752 1.77588C7.88623 1.96191 7.77051 2.20752 7.75049 2.43652L7.73682 2.74146C7.6333 4.0708 6.49951 5.11426 5.11328 5.11401C4.75586 5.11035 4.40332 5.03296 4.04443 4.87036L3.85205 4.77075C3.30371 4.46313 2.60498 4.64819 2.28076 5.19922L1.63135 6.24463C1.33398 6.75049 1.48242 7.39478 1.94336 7.70923L2.2041 7.87109C2.92188 8.34668 3.35742 9.14307 3.35742 10C3.35742 10.8445 2.93408 11.634 2.20215 12.1296L2.04639 12.2256C1.53369 12.5164 1.33545 13.144 1.57422 13.6384L1.63037 13.7449L2.25928 14.8083C2.40723 15.0696 2.65527 15.2625 2.94824 15.344C3.2085 15.4165 3.48584 15.3965 3.70215 15.3018L3.81104 15.2498C4.41113 14.9065 5.12598 14.8125 5.79736 14.9885C6.46875 15.1646 7.04004 15.5959 7.37939 16.1768C7.56201 16.478 7.67725 16.8132 7.72168 17.1985L7.74219 17.552C7.8042 18.1145 8.29053 18.5522 8.88086 18.5522L10.1162 18.5522C10.7139 18.5522 11.21 18.1023 11.2563 17.551L11.2622 17.4421C11.2588 16.7585 11.5347 16.1018 12.0278 15.6184C12.521 15.135 13.1914 14.865 13.9053 14.8687C14.2554 14.8777 14.6006 14.9546 14.9526 15.1101L15.2686 15.2681C15.7646 15.4814 16.353 15.3259 16.6509 14.9067L16.7236 14.7957L17.3682 13.7437C17.5205 13.4875 17.562 13.1824 17.4839 12.896C17.415 12.6421 17.2568 12.4207 17.0645 12.2881L16.7925 12.1196C16.2715 11.7747 15.8931 11.2563 15.73 10.6575C15.5508 9.99878 15.647 9.29712 15.9946 8.71265C16.1851 8.38721 16.4463 8.10742 16.7871 7.87524L16.9482 7.77612C17.46 7.48267 17.6577 6.85498 17.4214 6.35889L17.3506 6.22534L17.3379 6.19727L16.7529 5.20215C16.4766 4.73169 15.9009 4.52856 15.4126 4.68921L15.3013 4.73267L15.1982 4.78418C14.6001 5.12939 13.8862 5.22729 13.2144 5.0564C12.5425 4.8855 11.9673 4.45972 11.6182 3.87622C11.4355 3.57495 11.3203 3.23975 11.2754 2.85449L11.2622 2.60254C11.2715 2.29932 11.1548 2.00537 10.9385 1.78784C10.7227 1.57031 10.4263 1.44775 10.1162 1.44775ZM9.50342 6.73193C11.3457 6.73193 12.8389 8.19507 12.8389 10C12.8389 11.8049 11.3457 13.2681 9.50342 13.2681C7.66113 13.2681 6.16748 11.8049 6.16748 10C6.16748 8.19507 7.66113 6.73193 9.50342 6.73193ZM9.50342 8.17944C8.47705 8.17944 7.64502 8.99463 7.64502 10C7.64502 11.0054 8.47705 11.8206 9.50342 11.8206C10.5293 11.8206 11.3613 11.0054 11.3613 10C11.3613 8.99463 10.5293 8.17944 9.50342 8.17944Z" fill="#FAFAFA" fill-opacity="1.000000" fill-rule="nonzero"/>
</svg>
